# xmcd
#
# Track frame offsets:
# 150
# 21843
# 40411
# 59083
#
# Disc length: 1046 seconds
#
#
# Revision: 0
# Processed by: cddbd v1.4PL0 Copyright (c) Steve Scherf et al.
# Submitted via: FreeRIP 2.30 
#
DISCID=34041404
DTITLE=Scott Greeson - The Proving Grounds
DYEAR=1999
DGENRE=Country
TTITLE0=Road Side Lullaby
TTITLE1=Good Man, Bad Thing
TTITLE2=The Proving Grounds
TTITLE3=Wouldn't Change A Thing But Your Name
EXTD=
EXTT0=
EXTT1=
EXTT2=
EXTT3=
PLAYORDER=
